<?xml version="1.0"?>
<!--Icons from directory ""-->
<svg xmlns="http://www.w3.org/2000/svg" width="18" height="208" viewBox="0 0 18 208"><svg xmlns:xlink="http://www.w3.org/1999/xlink" height="16" width="16" version="1.1" viewBox="0 0 16 16" id="01-lightning" y="0"><path d="m6 12l1 1-1 3 3-3-1-1 1-2-3 2zm10-7.786c0-1.536-1.25-2.785-2.786-2.785-0.075 0-0.149 0.003-0.223 0.008-0.723-0.901-1.812-1.437-2.99-1.437s-2.268 0.536-2.99 1.437c-0.074-0.006-0.149-0.008-0.225-0.008-1.535 0-2.785 1.249-2.785 2.785 0 0.161 0.021 0.316 0.047 0.47-0.017 0.022-0.037 0.042-0.053 0.065-0.163-0.023-0.327-0.035-0.494-0.035-1.93 0-3.5 1.57-3.5 3.5s1.57 3.5 3.5 3.5c0.428 0 0.846-0.078 1.241-0.229 0.035 0.03 0.075 0.051 0.111 0.08l0.885-0.59c-0.295-0.209-0.57-0.441-0.801-0.719-0.406 0.286-0.9 0.458-1.436 0.458-1.381 0-2.5-1.118-2.5-2.5 0-1.38 1.119-2.5 2.5-2.5 0.338 0 0.658 0.069 0.951 0.19 0.018-0.034 0.039-0.063 0.057-0.095 0.176-0.321 0.393-0.615 0.646-0.876 0.721-0.747 1.724-1.219 2.846-1.219 1.553 0 2.885 0.896 3.548 2.19 0.176-0.073 0.365-0.12 0.559-0.151l0.393-0.039c0.385 0 0.746 0.095 1.072 0.25 0.354 0.169 0.657 0.418 0.895 0.725 0.328 0.423 0.533 0.948 0.533 1.525 0 1.382-1.119 2.5-2.5 2.5-0.535 0-1.029-0.172-1.436-0.458-0.438 0.527-1.014 0.924-1.661 1.174l-0.187 0.373 0.57 0.57c0.533-0.208 1.032-0.506 1.472-0.889 0.395 0.151 0.813 0.229 1.241 0.229 1.93 0 3.5-1.57 3.5-3.5 0-0.802-0.283-1.534-0.74-2.125 0.456-0.496 0.74-1.15 0.74-1.875zm-1.451 1.175c-0.577-0.42-1.281-0.676-2.049-0.676-0.166 0-0.33 0.012-0.493 0.035-0.934-1.271-2.407-2.035-4.007-2.035-1.066 0-2.072 0.346-2.904 0.949 0.234-0.714 0.898-1.234 1.689-1.234 0.242 0 0.471 0.049 0.68 0.135 0.475-0.925 1.426-1.564 2.535-1.564s2.061 0.639 2.534 1.564c0.21-0.087 0.44-0.135 0.68-0.135 0.987 0 1.786 0.799 1.786 1.785 0 0.453-0.174 0.861-0.451 1.176z" fill="#333"/></svg><svg xmlns:xlink="http://www.w3.org/1999/xlink" height="16" width="16" version="1.1" viewBox="0 0 16 16" id="02-in" y="16"><path d="m15 7c-0.553 0-1 0.448-1 1v6h-12v-6c0-0.552-0.447-1-1-1s-1 0.448-1 1v7c0 0.552 0.447 1 1 1h14c0.553 0 1-0.448 1-1v-7c0-0.552-0.447-1-1-1zm-6 0v-6.122c0-0.485-0.447-0.878-1-0.878s-1 0.393-1 0.878v6.122h-3l4 4 4-4h-3z" fill="#333"/></svg><svg xmlns:xlink="http://www.w3.org/1999/xlink" height="16" width="16" version="1.1" viewBox="0 0 16 16" id="03-pointer" y="32"><path d="m8.345 8.828l2.655 6.172-2 1-2.323-6.339-3.677 3.339v-13l10 8-4.655 0.828z" fill="#333"/></svg><svg xmlns:xlink="http://www.w3.org/1999/xlink" height="16" width="16" version="1.1" viewBox="0 0 16 16" id="04-cog2" y="48"><path d="m12.998 9.534h-0.662c-0.107 0.389-0.261 0.759-0.459 1.101l0.612 0.611c0.392 0.392 0.392 1.027 0 1.418l-0.354 0.354c-0.392 0.392-1.027 0.392-1.418 0l-0.616-0.616c-0.341 0.194-0.71 0.346-1.097 0.451v0.642c0 0.553-0.448 1.002-1.002 1.002h-0.501c-0.553 0-1.003-0.448-1.003-1.002v-0.642c-0.387-0.105-0.755-0.258-1.097-0.451l-0.615 0.616c-0.391 0.392-1.026 0.392-1.417 0l-0.355-0.354c-0.392-0.392-0.392-1.027 0-1.418l0.612-0.611c-0.197-0.343-0.352-0.712-0.46-1.101h-0.662c-0.554 0-1.002-0.448-1.002-1.002v-0.502c0-0.553 0.449-1.002 1.002-1.002h0.654c0.103-0.386 0.252-0.752 0.444-1.093l-0.588-0.588c-0.392-0.391-0.392-1.026 0-1.418l0.354-0.354c0.392-0.392 1.027-0.392 1.418 0l0.577 0.577c0.353-0.205 0.734-0.365 1.136-0.475v-0.674c0-0.554 0.45-1.002 1.003-1.002h0.501c0.553 0 1.002 0.449 1.002 1.002v0.673c0.403 0.11 0.784 0.27 1.136 0.476l0.576-0.577c0.392-0.392 1.027-0.392 1.418 0l0.354 0.354c0.392 0.391 0.392 1.027 0 1.418l-0.588 0.588c0.192 0.341 0.34 0.707 0.444 1.093h0.654c0.553 0 1.002 0.449 1.002 1.003v0.502c-0.001 0.553-0.449 1.002-1.003 1.002zm-5.248-3.994c-1.522 0-2.757 1.234-2.757 2.757s1.234 2.757 2.757 2.757 2.757-1.235 2.757-2.757-1.235-2.757-2.757-2.757zm0 3.978c-0.692 0-1.253-0.56-1.253-1.253s0.561-1.253 1.253-1.253 1.253 0.561 1.253 1.253c0 0.693-0.561 1.253-1.253 1.253z" fill="#333"/></svg><svg xmlns:xlink="http://www.w3.org/1999/xlink" height="16" width="16" version="1.1" viewBox="0 0 16 16" id="05-checkmark" y="64"><path d="m14.499 4.266l-1.067-1.067c-0.197-0.196-0.515-0.196-0.711 0l-6.397 6.397-3.043-3.065c-0.196-0.197-0.514-0.197-0.712 0l-1.067 1.067c-0.197 0.197-0.197 0.515 0 0.711l4.462 4.492c0.197 0.197 0.515 0.197 0.712 0l7.824-7.824c0.197-0.196 0.197-0.515 0-0.712z" fill="#333"/></svg><svg xmlns:xlink="http://www.w3.org/1999/xlink" height="16" width="14" version="1.1" viewBox="0 0 14 16" id="06-cog" y="80"><path d="m9.143 8q0-0.946-0.67-1.616t-1.616-0.67-1.616 0.67-0.67 1.616 0.67 1.616 1.616 0.67 1.616-0.67 0.67-1.616zm4.571-0.973v1.982q0 0.107-0.071 0.205t-0.179 0.116l-1.652 0.25q-0.17 0.482-0.348 0.813 0.313 0.446 0.955 1.232 0.089 0.107 0.089 0.223t-0.08 0.205q-0.241 0.33-0.884 0.964t-0.839 0.634q-0.107 0-0.232-0.08l-1.232-0.964q-0.393 0.205-0.813 0.339-0.143 1.214-0.259 1.661-0.063 0.25-0.321 0.25h-1.982q-0.125 0-0.219-0.076t-0.103-0.192l-0.25-1.643q-0.438-0.143-0.804-0.33l-1.259 0.955q-0.089 0.08-0.223 0.08-0.125 0-0.223-0.098-1.125-1.018-1.473-1.5-0.063-0.089-0.063-0.205 0-0.107 0.071-0.205 0.134-0.188 0.455-0.594t0.482-0.629q-0.241-0.446-0.366-0.884l-1.634-0.241q-0.116-0.018-0.188-0.112t-0.071-0.21v-1.982q0-0.107 0.071-0.205t0.17-0.116l1.661-0.25q0.125-0.411 0.348-0.821-0.357-0.509-0.955-1.232-0.089-0.107-0.089-0.214 0-0.089 0.08-0.205 0.232-0.321 0.879-0.96t0.844-0.638q0.116 0 0.232 0.089l1.232 0.955q0.393-0.205 0.813-0.339 0.143-1.214 0.259-1.661 0.063-0.25 0.321-0.25h1.982q0.125 0 0.219 0.076t0.103 0.192l0.25 1.643q0.438 0.143 0.804 0.33l1.268-0.955q0.08-0.08 0.214-0.08 0.116 0 0.223 0.089 1.152 1.063 1.473 1.518 0.063 0.071 0.063 0.196 0 0.107-0.071 0.205-0.134 0.188-0.455 0.594t-0.482 0.629q0.232 0.446 0.366 0.875l1.634 0.25q0.116 0.018 0.188 0.112t0.071 0.21z" fill="#333"/></svg><svg xmlns:xlink="http://www.w3.org/1999/xlink" height="16" width="16" version="1.1" viewBox="0 0 16 16" id="07-spinner" y="96"><path d="m4.696 12.446q0 0.473-0.335 0.808t-0.808 0.335q-0.464 0-0.804-0.339t-0.339-0.804q0-0.473 0.335-0.808t0.808-0.335 0.808 0.335 0.335 0.808zm4.447 1.84q0 0.473-0.335 0.808t-0.808 0.335-0.808-0.335-0.335-0.808 0.335-0.808 0.808-0.335 0.808 0.335 0.335 0.808zm-6.286-6.286q0 0.473-0.335 0.808t-0.808 0.335-0.808-0.335-0.335-0.808 0.335-0.808 0.808-0.335 0.808 0.335 0.335 0.808zm10.732 4.446q0 0.464-0.339 0.804t-0.804 0.339q-0.473 0-0.808-0.335t-0.335-0.808 0.335-0.808 0.808-0.335 0.808 0.335 0.335 0.808zm-8.607-8.892q0 0.589-0.42 1.009t-1.009 0.42-1.009-0.42-0.42-1.009 0.42-1.009 1.009-0.42 1.009 0.42 0.42 1.009zm10.447 4.446q0 0.473-0.335 0.808t-0.808 0.335-0.808-0.335-0.335-0.808 0.335-0.808 0.808-0.335 0.808 0.335 0.335 0.808zm-5.715-6.286q0 0.714-0.5 1.214t-1.214 0.5-1.214-0.5-0.5-1.214 0.5-1.214 1.214-0.5 1.214 0.5 0.5 1.214zm4.732 1.84q0 0.83-0.589 1.415t-1.411 0.585q-0.83 0-1.415-0.585t-0.585-1.415q0-0.821 0.585-1.411t1.415-0.589q0.821 0 1.411 0.589t0.589 1.411z" fill="#333"/></svg><svg xmlns:xlink="http://www.w3.org/1999/xlink" height="16" width="18" version="1.1" viewBox="0 0 18 16" id="08-toggle-off" y="112"><path d="m10.286 8q0-0.929-0.362-1.772t-0.978-1.46-1.46-0.978-1.772-0.362-1.772 0.362-1.46 0.978-0.978 1.46-0.362 1.772 0.362 1.772 0.978 1.46 1.46 0.978 1.772 0.362 1.772-0.362 1.46-0.978 0.978-1.46 0.362-1.772zm6.857 0q0-0.929-0.362-1.772t-0.978-1.46-1.46-0.978-1.772-0.362h-3.446q1.063 0.804 1.683 2t0.621 2.571-0.621 2.571-1.683 2h3.446q0.929 0 1.772-0.362t1.46-0.978 0.978-1.46 0.362-1.772zm1.143 0q0 1.161-0.455 2.219t-1.219 1.821-1.821 1.219-2.219 0.455h-6.857q-1.161 0-2.219-0.455t-1.821-1.219-1.219-1.821-0.455-2.219 0.455-2.219 1.219-1.821 1.821-1.219 2.219-0.455h6.857q1.161 0 2.219 0.455t1.821 1.219 1.219 1.821 0.455 2.219z" fill="#333"/></svg><svg xmlns:xlink="http://www.w3.org/1999/xlink" height="16" width="18" version="1.1" viewBox="0 0 18 16" id="09-toggle-on" y="128"><path d="m0 8q0-1.161 0.455-2.219t1.219-1.821 1.821-1.219 2.219-0.455h6.857q1.161 0 2.219 0.455t1.821 1.219 1.219 1.821 0.455 2.219-0.455 2.219-1.219 1.821-1.821 1.219-2.219 0.455h-6.857q-1.161 0-2.219-0.455t-1.821-1.219-1.219-1.821-0.455-2.219zm12.571 4.571q0.929 0 1.772-0.362t1.46-0.978 0.978-1.46 0.362-1.772-0.362-1.772-0.978-1.46-1.46-0.978-1.772-0.362-1.772 0.362-1.46 0.978-0.978 1.46-0.362 1.772 0.362 1.772 0.978 1.46 1.46 0.978 1.772 0.362z" fill="#333"/></svg><svg xmlns:xlink="http://www.w3.org/1999/xlink" height="16" width="16" version="1.1" viewBox="0 0 16 16" id="10-fast-forward" y="144"><path d="m7.333 2.667q0.276 0 0.469 0.193l4.667 4.667q0.198 0.198 0.198 0.474t-0.198 0.474l-4.667 4.667q-0.193 0.193-0.469 0.193t-0.471-0.195-0.195-0.471q0-0.281 0.193-0.474l4.193-4.193-4.193-4.193q-0.193-0.193-0.193-0.474 0-0.286 0.19-0.477t0.477-0.19zm-4 0q0.276 0 0.469 0.193l4.667 4.667q0.198 0.198 0.198 0.474t-0.198 0.474l-4.667 4.667q-0.193 0.193-0.469 0.193t-0.471-0.195-0.195-0.471q0-0.281 0.193-0.474l4.193-4.193-4.193-4.193q-0.193-0.193-0.193-0.474 0-0.286 0.19-0.477t0.477-0.19z" fill="#333"/></svg><svg xmlns:xlink="http://www.w3.org/1999/xlink" height="16" width="16" version="1.1" viewBox="0 0 16 16" id="11-expand" y="160"><path d="m11.333 0.667h2q0.828 0 1.414 0.586t0.586 1.414v2q0 0.276-0.195 0.471t-0.471 0.195-0.471-0.195-0.195-0.471v-2q0-0.276-0.195-0.471t-0.471-0.195h-2q-0.276 0-0.471-0.195t-0.195-0.471 0.195-0.471 0.471-0.195zm-10 10q0.276 0 0.471 0.195t0.195 0.471v2q0 0.276 0.195 0.471t0.471 0.195h2q0.276 0 0.471 0.195t0.195 0.471-0.195 0.471-0.471 0.195h-2q-0.828 0-1.414-0.586t-0.586-1.414v-2q0-0.276 0.195-0.471t0.471-0.195zm1.334-10h2q0.276 0 0.471 0.195t0.195 0.471-0.195 0.471-0.471 0.195h-2q-0.276 0-0.471 0.195t-0.195 0.471v2q0 0.276-0.195 0.471t-0.471 0.195-0.471-0.195-0.195-0.471v-2q0-0.828 0.586-1.414t1.414-0.586zm12 10q0.276 0 0.471 0.195t0.195 0.471v2q0 0.828-0.586 1.414t-1.414 0.586h-2q-0.276 0-0.471-0.195t-0.195-0.471 0.195-0.471 0.471-0.195h2q0.276 0 0.471-0.195t0.195-0.471v-2q0-0.276 0.195-0.471t0.471-0.195z" fill="#333"/></svg><svg xmlns:xlink="http://www.w3.org/1999/xlink" height="16" width="16" version="1.1" viewBox="0 0 16 16" id="12-mapmarker" y="176"><path d="m7.999 0c-3.351 0-6.069 2.717-6.069 6.069s4.767 9.931 6.069 9.931c0.963 0 6.07-6.578 6.07-9.931s-2.718-6.069-6.071-6.069zm-0.027 9.056c-1.703 0-3.083-1.38-3.083-3.083s1.38-3.083 3.083-3.083 3.083 1.38 3.083 3.083-1.38 3.083-3.083 3.083z" fill="#333"/></svg><svg xmlns:xlink="http://www.w3.org/1999/xlink" height="16" width="16" version="1.1" viewBox="0 0 16 16" id="13-fast-forward2" y="192"><path d="m15.617 7.329l-9.395-5.552c-0.491 0-0.889 0.398-0.889 0.889v1.737l-4.444-2.626c-0.491 0-0.889 0.398-0.889 0.889v10.667c0 0.491 0.398 0.889 0.889 0.889l4.444-2.626v1.737c0 0.491 0.398 0.889 0.889 0.889l9.395-5.552c0.237-0.14 0.383-0.395 0.383-0.671s-0.145-0.53-0.383-0.671zm-10.284 2.202l-3.556 2.101v-7.264l3.556 2.101v3.062zm1.778 2.101v-7.264l6.147 3.632-6.147 3.632z" fill="#333"/></svg></svg>
